<svg width="244" height="32" viewBox="0 0 244 32" fill="none" xmlns="http://www.w3.org/2000/svg">
<path d="M10.404 13.09C10.08 12.466 9.63 11.998 9.054 11.686C8.478 11.362 7.812 11.2 7.056 11.2C6.228 11.2 5.49 11.386 4.842 11.758C4.194 12.13 3.684 12.658 3.312 13.342C2.952 14.026 2.772 14.818 2.772 15.718C2.772 16.618 2.952 17.416 3.312 18.112C3.684 18.796 4.194 19.324 4.842 19.696C5.49 20.068 6.228 20.254 7.056 20.254C8.172 20.254 9.078 19.942 9.774 19.318C10.47 18.694 10.896 17.848 11.052 16.78H6.354V15.142H13.248V16.744C13.116 17.716 12.768 18.61 12.204 19.426C11.652 20.242 10.926 20.896 10.026 21.388C9.138 21.868 8.148 22.108 7.056 22.108C5.88 22.108 4.806 21.838 3.834 21.298C2.862 20.746 2.088 19.984 1.512 19.012C0.948 18.04 0.666 16.942 0.666 15.718C0.666 14.494 0.948 13.396 1.512 12.424C2.088 11.452 2.862 10.696 3.834 10.156C4.818 9.604 5.892 9.328 7.056 9.328C8.388 9.328 9.57 9.658 10.602 10.318C11.646 10.966 12.402 11.89 12.87 13.09H10.404ZM24.3619 16.798C24.3619 17.17 24.3379 17.506 24.2899 17.806H16.7119C16.7719 18.598 17.0659 19.234 17.5939 19.714C18.1219 20.194 18.7699 20.434 19.5379 20.434C20.6419 20.434 21.4219 19.972 21.8779 19.048H24.0919C23.7919 19.96 23.2459 20.71 22.4539 21.298C21.6739 21.874 20.7019 22.162 19.5379 22.162C18.5899 22.162 17.7379 21.952 16.9819 21.532C16.2379 21.1 15.6499 20.5 15.2179 19.732C14.7979 18.952 14.5879 18.052 14.5879 17.032C14.5879 16.012 14.7919 15.118 15.1999 14.35C15.6199 13.57 16.2019 12.97 16.9459 12.55C17.7019 12.13 18.5659 11.92 19.5379 11.92C20.4739 11.92 21.3079 12.124 22.0399 12.532C22.7719 12.94 23.3419 13.516 23.7499 14.26C24.1579 14.992 24.3619 15.838 24.3619 16.798ZM22.2199 16.15C22.2079 15.394 21.9379 14.788 21.4099 14.332C20.8819 13.876 20.2279 13.648 19.4479 13.648C18.7399 13.648 18.1339 13.876 17.6299 14.332C17.1259 14.776 16.8259 15.382 16.7299 16.15H22.2199ZM28.7753 13.756V19.246C28.7753 19.618 28.8593 19.888 29.0273 20.056C29.2073 20.212 29.5073 20.29 29.9273 20.29H31.1873V22H29.5673C28.6433 22 27.9353 21.784 27.4433 21.352C26.9513 20.92 26.7053 20.218 26.7053 19.246V13.756H25.5353V12.082H26.7053V9.616H28.7753V12.082H31.1873V13.756H28.7753ZM38.7983 10.768C38.4263 10.768 38.1143 10.642 37.8623 10.39C37.6103 10.138 37.4843 9.826 37.4843 9.454C37.4843 9.082 37.6103 8.77 37.8623 8.518C38.1143 8.266 38.4263 8.14 38.7983 8.14C39.1583 8.14 39.4643 8.266 39.7163 8.518C39.9683 8.77 40.0943 9.082 40.0943 9.454C40.0943 9.826 39.9683 10.138 39.7163 10.39C39.4643 10.642 39.1583 10.768 38.7983 10.768ZM39.8063 12.082V22H37.7543V12.082H39.8063ZM47.5044 11.92C48.2844 11.92 48.9804 12.082 49.5924 12.406C50.2164 12.73 50.7024 13.21 51.0504 13.846C51.3984 14.482 51.5724 15.25 51.5724 16.15V22H49.5384V16.456C49.5384 15.568 49.3164 14.89 48.8724 14.422C48.4284 13.942 47.8224 13.702 47.0544 13.702C46.2864 13.702 45.6744 13.942 45.2184 14.422C44.7744 14.89 44.5524 15.568 44.5524 16.456V22H42.5004V12.082H44.5524V13.216C44.8884 12.808 45.3144 12.49 45.8304 12.262C46.3584 12.034 46.9164 11.92 47.5044 11.92ZM61.2596 13.756V19.246C61.2596 19.618 61.3436 19.888 61.5116 20.056C61.6916 20.212 61.9916 20.29 62.4116 20.29H63.6716V22H62.0516C61.1276 22 60.4196 21.784 59.9276 21.352C59.4356 20.92 59.1896 20.218 59.1896 19.246V13.756H58.0196V12.082H59.1896V9.616H61.2596V12.082H63.6716V13.756H61.2596ZM69.8649 22.162C68.9289 22.162 68.0829 21.952 67.3269 21.532C66.5709 21.1 65.9769 20.5 65.5449 19.732C65.1129 18.952 64.8969 18.052 64.8969 17.032C64.8969 16.024 65.1189 15.13 65.5629 14.35C66.0069 13.57 66.6129 12.97 67.3809 12.55C68.1489 12.13 69.0069 11.92 69.9549 11.92C70.9029 11.92 71.7609 12.13 72.5289 12.55C73.2969 12.97 73.9029 13.57 74.3469 14.35C74.7909 15.13 75.0129 16.024 75.0129 17.032C75.0129 18.04 74.7849 18.934 74.3289 19.714C73.8729 20.494 73.2489 21.1 72.4569 21.532C71.6769 21.952 70.8129 22.162 69.8649 22.162ZM69.8649 20.38C70.3929 20.38 70.8849 20.254 71.3409 20.002C71.8089 19.75 72.1869 19.372 72.4749 18.868C72.7629 18.364 72.9069 17.752 72.9069 17.032C72.9069 16.312 72.7689 15.706 72.4929 15.214C72.2169 14.71 71.8509 14.332 71.3949 14.08C70.9389 13.828 70.4469 13.702 69.9189 13.702C69.3909 13.702 68.8989 13.828 68.4429 14.08C67.9989 14.332 67.6449 14.71 67.3809 15.214C67.1169 15.706 66.9849 16.312 66.9849 17.032C66.9849 18.1 67.2549 18.928 67.7949 19.516C68.3469 20.092 69.0369 20.38 69.8649 20.38ZM86.0234 12.082V22H83.9714V20.83C83.6474 21.238 83.2214 21.562 82.6934 21.802C82.1774 22.03 81.6254 22.144 81.0374 22.144C80.2574 22.144 79.5554 21.982 78.9314 21.658C78.3194 21.334 77.8334 20.854 77.4734 20.218C77.1254 19.582 76.9514 18.814 76.9514 17.914V12.082H78.9854V17.608C78.9854 18.496 79.2074 19.18 79.6514 19.66C80.0954 20.128 80.7014 20.362 81.4694 20.362C82.2374 20.362 82.8434 20.128 83.2874 19.66C83.7434 19.18 83.9714 18.496 83.9714 17.608V12.082H86.0234ZM88.0469 17.032C88.0469 16.012 88.2509 15.118 88.6589 14.35C89.0789 13.57 89.6549 12.97 90.3869 12.55C91.1189 12.13 91.9589 11.92 92.9069 11.92C94.1069 11.92 95.0969 12.208 95.8769 12.784C96.6689 13.348 97.2029 14.158 97.4789 15.214H95.2649C95.0849 14.722 94.7969 14.338 94.4009 14.062C94.0049 13.786 93.5069 13.648 92.9069 13.648C92.0669 13.648 91.3949 13.948 90.8909 14.548C90.3989 15.136 90.1529 15.964 90.1529 17.032C90.1529 18.1 90.3989 18.934 90.8909 19.534C91.3949 20.134 92.0669 20.434 92.9069 20.434C94.0949 20.434 94.8809 19.912 95.2649 18.868H97.4789C97.1909 19.876 96.6509 20.68 95.8589 21.28C95.0669 21.868 94.0829 22.162 92.9069 22.162C91.9589 22.162 91.1189 21.952 90.3869 21.532C89.6549 21.1 89.0789 20.5 88.6589 19.732C88.2509 18.952 88.0469 18.052 88.0469 17.032ZM104.654 11.92C105.41 11.92 106.082 12.082 106.67 12.406C107.27 12.73 107.738 13.21 108.074 13.846C108.422 14.482 108.596 15.25 108.596 16.15V22H106.562V16.456C106.562 15.568 106.34 14.89 105.896 14.422C105.452 13.942 104.846 13.702 104.078 13.702C103.31 13.702 102.698 13.942 102.242 14.422C101.798 14.89 101.576 15.568 101.576 16.456V22H99.5238V8.68H101.576V13.234C101.924 12.814 102.362 12.49 102.89 12.262C103.43 12.034 104.018 11.92 104.654 11.92ZM129.209 12.082L126.131 22H123.971L121.973 14.674L119.975 22H117.815L114.719 12.082H116.807L118.877 20.056L120.983 12.082H123.125L125.141 20.02L127.193 12.082H129.209ZM131.787 10.768C131.415 10.768 131.103 10.642 130.851 10.39C130.599 10.138 130.473 9.826 130.473 9.454C130.473 9.082 130.599 8.77 130.851 8.518C131.103 8.266 131.415 8.14 131.787 8.14C132.147 8.14 132.453 8.266 132.705 8.518C132.957 8.77 133.083 9.082 133.083 9.454C133.083 9.826 132.957 10.138 132.705 10.39C132.453 10.642 132.147 10.768 131.787 10.768ZM132.795 12.082V22H130.743V12.082H132.795ZM137.883 13.756V19.246C137.883 19.618 137.967 19.888 138.135 20.056C138.315 20.212 138.615 20.29 139.035 20.29H140.295V22H138.675C137.751 22 137.043 21.784 136.551 21.352C136.059 20.92 135.813 20.218 135.813 19.246V13.756H134.643V12.082H135.813V9.616H137.883V12.082H140.295V13.756H137.883ZM147.316 11.92C148.072 11.92 148.744 12.082 149.332 12.406C149.932 12.73 150.4 13.21 150.736 13.846C151.084 14.482 151.258 15.25 151.258 16.15V22H149.224V16.456C149.224 15.568 149.002 14.89 148.558 14.422C148.114 13.942 147.508 13.702 146.74 13.702C145.972 13.702 145.36 13.942 144.904 14.422C144.46 14.89 144.238 15.568 144.238 16.456V22H142.186V8.68H144.238V13.234C144.586 12.814 145.024 12.49 145.552 12.262C146.092 12.034 146.68 11.92 147.316 11.92ZM167.533 12.082V22H165.481V20.83C165.157 21.238 164.731 21.562 164.203 21.802C163.687 22.03 163.135 22.144 162.547 22.144C161.767 22.144 161.065 21.982 160.441 21.658C159.829 21.334 159.343 20.854 158.983 20.218C158.635 19.582 158.461 18.814 158.461 17.914V12.082H160.495V17.608C160.495 18.496 160.717 19.18 161.161 19.66C161.605 20.128 162.211 20.362 162.979 20.362C163.747 20.362 164.353 20.128 164.797 19.66C165.253 19.18 165.481 18.496 165.481 17.608V12.082H167.533ZM173.841 22.162C173.061 22.162 172.359 22.024 171.735 21.748C171.123 21.46 170.637 21.076 170.277 20.596C169.917 20.104 169.725 19.558 169.701 18.958H171.825C171.861 19.378 172.059 19.732 172.419 20.02C172.791 20.296 173.253 20.434 173.805 20.434C174.381 20.434 174.825 20.326 175.137 20.11C175.461 19.882 175.623 19.594 175.623 19.246C175.623 18.874 175.443 18.598 175.083 18.418C174.735 18.238 174.177 18.04 173.409 17.824C172.665 17.62 172.059 17.422 171.591 17.23C171.123 17.038 170.715 16.744 170.367 16.348C170.031 15.952 169.863 15.43 169.863 14.782C169.863 14.254 170.019 13.774 170.331 13.342C170.643 12.898 171.087 12.55 171.663 12.298C172.251 12.046 172.923 11.92 173.679 11.92C174.807 11.92 175.713 12.208 176.397 12.784C177.093 13.348 177.465 14.122 177.513 15.106H175.461C175.425 14.662 175.245 14.308 174.921 14.044C174.597 13.78 174.159 13.648 173.607 13.648C173.067 13.648 172.653 13.75 172.365 13.954C172.077 14.158 171.933 14.428 171.933 14.764C171.933 15.028 172.029 15.25 172.221 15.43C172.413 15.61 172.647 15.754 172.923 15.862C173.199 15.958 173.607 16.084 174.147 16.24C174.867 16.432 175.455 16.63 175.911 16.834C176.379 17.026 176.781 17.314 177.117 17.698C177.453 18.082 177.627 18.592 177.639 19.228C177.639 19.792 177.483 20.296 177.171 20.74C176.859 21.184 176.415 21.532 175.839 21.784C175.275 22.036 174.609 22.162 173.841 22.162Z" fill="white"/>
<path d="M215.53 16.5303C215.823 16.2374 215.823 15.7626 215.53 15.4697L210.757 10.6967C210.464 10.4038 209.99 10.4038 209.697 10.6967C209.404 10.9896 209.404 11.4645 209.697 11.7574L213.939 16L209.697 20.2426C209.404 20.5355 209.404 21.0104 209.697 21.3033C209.99 21.5962 210.464 21.5962 210.757 21.3033L215.53 16.5303ZM191 16.75H215V15.25H191V16.75Z" fill="#F4F6FC"/>
</svg>
