<svg width="124" height="28" viewBox="0 0 124 28" fill="none" xmlns="http://www.w3.org/2000/svg">
<path d="M6.976 20L4.416 15.552H3.024V20H1.2V8.88H5.04C5.89333 8.88 6.61333 9.02933 7.2 9.328C7.79733 9.62667 8.24 10.0267 8.528 10.528C8.82667 11.0293 8.976 11.5893 8.976 12.208C8.976 12.9333 8.76267 13.5947 8.336 14.192C7.92 14.7787 7.27467 15.1787 6.4 15.392L9.152 20H6.976ZM3.024 14.096H5.04C5.72267 14.096 6.23467 13.9253 6.576 13.584C6.928 13.2427 7.104 12.784 7.104 12.208C7.104 11.632 6.93333 11.184 6.592 10.864C6.25067 10.5333 5.73333 10.368 5.04 10.368H3.024V14.096ZM19.3894 15.376C19.3894 15.7067 19.368 16.0053 19.3254 16.272H12.5894C12.6427 16.976 12.904 17.5413 13.3734 17.968C13.8427 18.3947 14.4187 18.608 15.1014 18.608C16.0827 18.608 16.776 18.1973 17.1814 17.376H19.1494C18.8827 18.1867 18.3974 18.8533 17.6934 19.376C17 19.888 16.136 20.144 15.1014 20.144C14.2587 20.144 13.5014 19.9573 12.8294 19.584C12.168 19.2 11.6454 18.6667 11.2614 17.984C10.888 17.2907 10.7014 16.4907 10.7014 15.584C10.7014 14.6773 10.8827 13.8827 11.2454 13.2C11.6187 12.5067 12.136 11.9733 12.7974 11.6C13.4694 11.2267 14.2374 11.04 15.1014 11.04C15.9334 11.04 16.6747 11.2213 17.3254 11.584C17.976 11.9467 18.4827 12.4587 18.8454 13.12C19.208 13.7707 19.3894 14.5227 19.3894 15.376ZM17.4854 14.8C17.4747 14.128 17.2347 13.5893 16.7654 13.184C16.296 12.7787 15.7147 12.576 15.0214 12.576C14.392 12.576 13.8534 12.7787 13.4054 13.184C12.9574 13.5787 12.6907 14.1173 12.6054 14.8H17.4854ZM20.5764 15.552C20.5764 14.6667 20.7577 13.8827 21.1204 13.2C21.4937 12.5173 21.995 11.9893 22.6244 11.616C23.2644 11.232 23.9684 11.04 24.7364 11.04C25.4297 11.04 26.0324 11.1787 26.5444 11.456C27.067 11.7227 27.483 12.0587 27.7924 12.464V11.184H29.6324V20H27.7924V18.688C27.483 19.104 27.0617 19.4507 26.5284 19.728C25.995 20.0053 25.387 20.144 24.7044 20.144C23.947 20.144 23.2537 19.952 22.6244 19.568C21.995 19.1733 21.4937 18.6293 21.1204 17.936C20.7577 17.232 20.5764 16.4373 20.5764 15.552ZM27.7924 15.584C27.7924 14.976 27.6644 14.448 27.4084 14C27.163 13.552 26.8377 13.2107 26.4324 12.976C26.027 12.7413 25.5897 12.624 25.1204 12.624C24.651 12.624 24.2137 12.7413 23.8084 12.976C23.403 13.2 23.0724 13.536 22.8164 13.984C22.571 14.4213 22.4484 14.944 22.4484 15.552C22.4484 16.16 22.571 16.6933 22.8164 17.152C23.0724 17.6107 23.403 17.9627 23.8084 18.208C24.2244 18.4427 24.6617 18.56 25.1204 18.56C25.5897 18.56 26.027 18.4427 26.4324 18.208C26.8377 17.9733 27.163 17.632 27.4084 17.184C27.6644 16.7253 27.7924 16.192 27.7924 15.584ZM31.4201 15.552C31.4201 14.6667 31.6015 13.8827 31.9641 13.2C32.3375 12.5173 32.8388 11.9893 33.4681 11.616C34.1081 11.232 34.8175 11.04 35.5961 11.04C36.1721 11.04 36.7375 11.168 37.2921 11.424C37.8575 11.6693 38.3055 12 38.6361 12.416V8.16H40.4761V20H38.6361V18.672C38.3375 19.0987 37.9215 19.4507 37.3881 19.728C36.8655 20.0053 36.2628 20.144 35.5801 20.144C34.8121 20.144 34.1081 19.952 33.4681 19.568C32.8388 19.1733 32.3375 18.6293 31.9641 17.936C31.6015 17.232 31.4201 16.4373 31.4201 15.552ZM38.6361 15.584C38.6361 14.976 38.5081 14.448 38.2521 14C38.0068 13.552 37.6815 13.2107 37.2761 12.976C36.8708 12.7413 36.4335 12.624 35.9641 12.624C35.4948 12.624 35.0575 12.7413 34.6521 12.976C34.2468 13.2 33.9161 13.536 33.6601 13.984C33.4148 14.4213 33.2921 14.944 33.2921 15.552C33.2921 16.16 33.4148 16.6933 33.6601 17.152C33.9161 17.6107 34.2468 17.9627 34.6521 18.208C35.0681 18.4427 35.5055 18.56 35.9641 18.56C36.4335 18.56 36.8708 18.4427 37.2761 18.208C37.6815 17.9733 38.0068 17.632 38.2521 17.184C38.5081 16.7253 38.6361 16.192 38.6361 15.584ZM58.7401 8.88V20H56.9161V12.384L53.5241 20H52.2601L48.8521 12.384V20H47.0281V8.88H48.9961L52.9001 17.6L56.7881 8.88H58.7401ZM64.9615 20.144C64.1295 20.144 63.3775 19.9573 62.7055 19.584C62.0335 19.2 61.5055 18.6667 61.1215 17.984C60.7375 17.2907 60.5455 16.4907 60.5455 15.584C60.5455 14.688 60.7428 13.8933 61.1375 13.2C61.5322 12.5067 62.0708 11.9733 62.7535 11.6C63.4362 11.2267 64.1988 11.04 65.0415 11.04C65.8842 11.04 66.6468 11.2267 67.3295 11.6C68.0122 11.9733 68.5508 12.5067 68.9455 13.2C69.3402 13.8933 69.5375 14.688 69.5375 15.584C69.5375 16.48 69.3348 17.2747 68.9295 17.968C68.5242 18.6613 67.9695 19.2 67.2655 19.584C66.5722 19.9573 65.8042 20.144 64.9615 20.144ZM64.9615 18.56C65.4308 18.56 65.8682 18.448 66.2735 18.224C66.6895 18 67.0255 17.664 67.2815 17.216C67.5375 16.768 67.6655 16.224 67.6655 15.584C67.6655 14.944 67.5428 14.4053 67.2975 13.968C67.0522 13.52 66.7268 13.184 66.3215 12.96C65.9162 12.736 65.4788 12.624 65.0095 12.624C64.5402 12.624 64.1028 12.736 63.6975 12.96C63.3028 13.184 62.9882 13.52 62.7535 13.968C62.5188 14.4053 62.4015 14.944 62.4015 15.584C62.4015 16.5333 62.6415 17.2693 63.1215 17.792C63.6122 18.304 64.2255 18.56 64.9615 18.56ZM73.1646 12.464C73.4313 12.016 73.7833 11.6693 74.2206 11.424C74.6686 11.168 75.1966 11.04 75.8046 11.04V12.928H75.3406C74.626 12.928 74.082 13.1093 73.7086 13.472C73.346 13.8347 73.1646 14.464 73.1646 15.36V20H71.3406V11.184H73.1646V12.464ZM85.5613 15.376C85.5613 15.7067 85.5399 16.0053 85.4973 16.272H78.7613C78.8146 16.976 79.0759 17.5413 79.5453 17.968C80.0146 18.3947 80.5906 18.608 81.2733 18.608C82.2546 18.608 82.9479 18.1973 83.3533 17.376H85.3212C85.0546 18.1867 84.5693 18.8533 83.8653 19.376C83.1719 19.888 82.3079 20.144 81.2733 20.144C80.4306 20.144 79.6733 19.9573 79.0013 19.584C78.3399 19.2 77.8173 18.6667 77.4333 17.984C77.0599 17.2907 76.8733 16.4907 76.8733 15.584C76.8733 14.6773 77.0546 13.8827 77.4173 13.2C77.7906 12.5067 78.3079 11.9733 78.9693 11.6C79.6413 11.2267 80.4093 11.04 81.2733 11.04C82.1053 11.04 82.8466 11.2213 83.4973 11.584C84.1479 11.9467 84.6546 12.4587 85.0173 13.12C85.3799 13.7707 85.5613 14.5227 85.5613 15.376ZM83.6573 14.8C83.6466 14.128 83.4066 13.5893 82.9373 13.184C82.4679 12.7787 81.8866 12.576 81.1933 12.576C80.5639 12.576 80.0253 12.7787 79.5773 13.184C79.1293 13.5787 78.8626 14.1173 78.7773 14.8H83.6573Z" fill="#282938"/>
<path d="M123.53 14.5303C123.823 14.2374 123.823 13.7626 123.53 13.4697L118.757 8.6967C118.464 8.40381 117.99 8.40381 117.697 8.6967C117.404 8.98959 117.404 9.46447 117.697 9.75736L121.939 14L117.697 18.2426C117.404 18.5355 117.404 19.0104 117.697 19.3033C117.99 19.5962 118.464 19.5962 118.757 19.3033L123.53 14.5303ZM99 14.75H123V13.25H99V14.75Z" fill="#282938"/>
</svg>
