<svg width="141" height="28" viewBox="0 0 141 28" fill="none" xmlns="http://www.w3.org/2000/svg">
<path d="M140.53 14.5303C140.823 14.2374 140.823 13.7626 140.53 13.4697L135.757 8.6967C135.464 8.40381 134.99 8.40381 134.697 8.6967C134.404 8.98959 134.404 9.46447 134.697 9.75736L138.939 14L134.697 18.2426C134.404 18.5355 134.404 19.0104 134.697 19.3033C134.99 19.5962 135.464 19.5962 135.757 19.3033L140.53 14.5303ZM116 14.75H140V13.25H116V14.75Z" fill="#FCD980"/>
<path d="M10.784 8.88L6.608 20H4.496L0.304 8.88H2.256L5.552 18.128L8.864 8.88H10.784ZM13.2374 10.016C12.9067 10.016 12.6294 9.904 12.4054 9.68C12.1814 9.456 12.0694 9.17867 12.0694 8.848C12.0694 8.51733 12.1814 8.24 12.4054 8.016C12.6294 7.792 12.9067 7.68 13.2374 7.68C13.5574 7.68 13.8294 7.792 14.0534 8.016C14.2774 8.24 14.3894 8.51733 14.3894 8.848C14.3894 9.17867 14.2774 9.456 14.0534 9.68C13.8294 9.904 13.5574 10.016 13.2374 10.016ZM14.1334 11.184V20H12.3094V11.184H14.1334ZM24.6081 15.376C24.6081 15.7067 24.5868 16.0053 24.5441 16.272H17.8081C17.8615 16.976 18.1228 17.5413 18.5921 17.968C19.0615 18.3947 19.6375 18.608 20.3201 18.608C21.3015 18.608 21.9948 18.1973 22.4001 17.376H24.3681C24.1015 18.1867 23.6161 18.8533 22.9121 19.376C22.2188 19.888 21.3548 20.144 20.3201 20.144C19.4775 20.144 18.7201 19.9573 18.0481 19.584C17.3868 19.2 16.8641 18.6667 16.4801 17.984C16.1068 17.2907 15.9201 16.4907 15.9201 15.584C15.9201 14.6773 16.1015 13.8827 16.4641 13.2C16.8375 12.5067 17.3548 11.9733 18.0161 11.6C18.6881 11.2267 19.4561 11.04 20.3201 11.04C21.1521 11.04 21.8935 11.2213 22.5441 11.584C23.1948 11.9467 23.7015 12.4587 24.0641 13.12C24.4268 13.7707 24.6081 14.5227 24.6081 15.376ZM22.7041 14.8C22.6935 14.128 22.4535 13.5893 21.9841 13.184C21.5148 12.7787 20.9335 12.576 20.2401 12.576C19.6108 12.576 19.0721 12.7787 18.6241 13.184C18.1761 13.5787 17.9095 14.1173 17.8241 14.8H22.7041ZM38.2431 11.184L35.5071 20H33.5871L31.8111 13.488L30.0351 20H28.1151L25.3631 11.184H27.2191L29.0591 18.272L30.9311 11.184H32.8351L34.6271 18.24L36.4511 11.184H38.2431ZM45.5865 12.48C45.8958 12.0747 46.3172 11.7333 46.8505 11.456C47.3838 11.1787 47.9865 11.04 48.6585 11.04C49.4265 11.04 50.1252 11.232 50.7545 11.616C51.3945 11.9893 51.8958 12.5173 52.2585 13.2C52.6212 13.8827 52.8025 14.6667 52.8025 15.552C52.8025 16.4373 52.6212 17.232 52.2585 17.936C51.8958 18.6293 51.3945 19.1733 50.7545 19.568C50.1252 19.952 49.4265 20.144 48.6585 20.144C47.9865 20.144 47.3892 20.0107 46.8665 19.744C46.3438 19.4667 45.9172 19.1253 45.5865 18.72V24.192H43.7625V11.184H45.5865V12.48ZM50.9465 15.552C50.9465 14.944 50.8185 14.4213 50.5625 13.984C50.3172 13.536 49.9865 13.2 49.5705 12.976C49.1652 12.7413 48.7278 12.624 48.2585 12.624C47.7998 12.624 47.3625 12.7413 46.9465 12.976C46.5412 13.2107 46.2105 13.552 45.9545 14C45.7092 14.448 45.5865 14.976 45.5865 15.584C45.5865 16.192 45.7092 16.7253 45.9545 17.184C46.2105 17.632 46.5412 17.9733 46.9465 18.208C47.3625 18.4427 47.7998 18.56 48.2585 18.56C48.7278 18.56 49.1652 18.4427 49.5705 18.208C49.9865 17.9627 50.3172 17.6107 50.5625 17.152C50.8185 16.6933 50.9465 16.16 50.9465 15.552ZM56.4303 12.464C56.6969 12.016 57.0489 11.6693 57.4863 11.424C57.9343 11.168 58.4623 11.04 59.0703 11.04V12.928H58.6063C57.8916 12.928 57.3476 13.1093 56.9743 13.472C56.6116 13.8347 56.4303 14.464 56.4303 15.36V20H54.6063V11.184H56.4303V12.464ZM64.5709 20.144C63.7389 20.144 62.9869 19.9573 62.3149 19.584C61.6429 19.2 61.1149 18.6667 60.7309 17.984C60.3469 17.2907 60.1549 16.4907 60.1549 15.584C60.1549 14.688 60.3522 13.8933 60.7469 13.2C61.1415 12.5067 61.6802 11.9733 62.3629 11.6C63.0455 11.2267 63.8082 11.04 64.6509 11.04C65.4935 11.04 66.2562 11.2267 66.9389 11.6C67.6215 11.9733 68.1602 12.5067 68.5549 13.2C68.9495 13.8933 69.1469 14.688 69.1469 15.584C69.1469 16.48 68.9442 17.2747 68.5389 17.968C68.1335 18.6613 67.5789 19.2 66.8749 19.584C66.1815 19.9573 65.4135 20.144 64.5709 20.144ZM64.5709 18.56C65.0402 18.56 65.4775 18.448 65.8829 18.224C66.2989 18 66.6349 17.664 66.8909 17.216C67.1469 16.768 67.2749 16.224 67.2749 15.584C67.2749 14.944 67.1522 14.4053 66.9069 13.968C66.6615 13.52 66.3362 13.184 65.9309 12.96C65.5255 12.736 65.0882 12.624 64.6189 12.624C64.1495 12.624 63.7122 12.736 63.3069 12.96C62.9122 13.184 62.5975 13.52 62.3629 13.968C62.1282 14.4053 62.0109 14.944 62.0109 15.584C62.0109 16.5333 62.2509 17.2693 62.7309 17.792C63.2215 18.304 63.8349 18.56 64.5709 18.56ZM71.878 10.016C71.5473 10.016 71.27 9.904 71.046 9.68C70.822 9.456 70.71 9.17867 70.71 8.848C70.71 8.51733 70.822 8.24 71.046 8.016C71.27 7.792 71.5473 7.68 71.878 7.68C72.198 7.68 72.47 7.792 72.694 8.016C72.918 8.24 73.03 8.51733 73.03 8.848C73.03 9.17867 72.918 9.456 72.694 9.68C72.47 9.904 72.198 10.016 71.878 10.016ZM72.774 21.728C72.774 22.592 72.5553 23.216 72.118 23.6C71.6913 23.9947 71.0673 24.192 70.246 24.192H69.302V22.656H69.926C70.2993 22.656 70.5607 22.5813 70.71 22.432C70.87 22.2933 70.95 22.0587 70.95 21.728V11.184H72.774V21.728ZM83.2488 15.376C83.2488 15.7067 83.2274 16.0053 83.1848 16.272H76.4488C76.5021 16.976 76.7634 17.5413 77.2328 17.968C77.7021 18.3947 78.2781 18.608 78.9608 18.608C79.9421 18.608 80.6354 18.1973 81.0408 17.376H83.0087C82.7421 18.1867 82.2568 18.8533 81.5528 19.376C80.8594 19.888 79.9954 20.144 78.9608 20.144C78.1181 20.144 77.3608 19.9573 76.6888 19.584C76.0274 19.2 75.5048 18.6667 75.1208 17.984C74.7474 17.2907 74.5608 16.4907 74.5608 15.584C74.5608 14.6773 74.7421 13.8827 75.1048 13.2C75.4781 12.5067 75.9954 11.9733 76.6568 11.6C77.3288 11.2267 78.0968 11.04 78.9608 11.04C79.7928 11.04 80.5341 11.2213 81.1848 11.584C81.8354 11.9467 82.3421 12.4587 82.7048 13.12C83.0674 13.7707 83.2488 14.5227 83.2488 15.376ZM81.3448 14.8C81.3341 14.128 81.0941 13.5893 80.6248 13.184C80.1554 12.7787 79.5741 12.576 78.8808 12.576C78.2514 12.576 77.7128 12.7787 77.2648 13.184C76.8168 13.5787 76.5501 14.1173 76.4648 14.8H81.3448ZM84.4358 15.584C84.4358 14.6773 84.6171 13.8827 84.9798 13.2C85.3531 12.5067 85.8651 11.9733 86.5158 11.6C87.1664 11.2267 87.9131 11.04 88.7558 11.04C89.8224 11.04 90.7024 11.296 91.3958 11.808C92.0998 12.3093 92.5744 13.0293 92.8198 13.968H90.8518C90.6918 13.5307 90.4358 13.1893 90.0838 12.944C89.7318 12.6987 89.2891 12.576 88.7558 12.576C88.0091 12.576 87.4118 12.8427 86.9638 13.376C86.5264 13.8987 86.3078 14.6347 86.3078 15.584C86.3078 16.5333 86.5264 17.2747 86.9638 17.808C87.4118 18.3413 88.0091 18.608 88.7558 18.608C89.8118 18.608 90.5104 18.144 90.8518 17.216H92.8198C92.5638 18.112 92.0838 18.8267 91.3798 19.36C90.6758 19.8827 89.8011 20.144 88.7558 20.144C87.9131 20.144 87.1664 19.9573 86.5158 19.584C85.8651 19.2 85.3531 18.6667 84.9798 17.984C84.6171 17.2907 84.4358 16.4907 84.4358 15.584ZM96.7655 12.672V17.552C96.7655 17.8827 96.8402 18.1227 96.9895 18.272C97.1495 18.4107 97.4162 18.48 97.7895 18.48H98.9095V20H97.4695C96.6482 20 96.0188 19.808 95.5815 19.424C95.1442 19.04 94.9255 18.416 94.9255 17.552V12.672H93.8855V11.184H94.9255V8.992H96.7655V11.184H98.9095V12.672H96.7655Z" fill="#FCD980"/>
</svg>
