<svg width="151" height="28" viewBox="0 0 151 28" fill="none" xmlns="http://www.w3.org/2000/svg">
<path d="M10.784 8.88L6.608 20H4.496L0.304 8.88H2.256L5.552 18.128L8.864 8.88H10.784ZM13.2374 10.016C12.9067 10.016 12.6294 9.904 12.4054 9.68C12.1814 9.456 12.0694 9.17867 12.0694 8.848C12.0694 8.51733 12.1814 8.24 12.4054 8.016C12.6294 7.792 12.9067 7.68 13.2374 7.68C13.5574 7.68 13.8294 7.792 14.0534 8.016C14.2774 8.24 14.3894 8.51733 14.3894 8.848C14.3894 9.17867 14.2774 9.456 14.0534 9.68C13.8294 9.904 13.5574 10.016 13.2374 10.016ZM14.1334 11.184V20H12.3094V11.184H14.1334ZM24.6081 15.376C24.6081 15.7067 24.5868 16.0053 24.5441 16.272H17.8081C17.8615 16.976 18.1228 17.5413 18.5921 17.968C19.0615 18.3947 19.6375 18.608 20.3201 18.608C21.3015 18.608 21.9948 18.1973 22.4001 17.376H24.3681C24.1015 18.1867 23.6161 18.8533 22.9121 19.376C22.2188 19.888 21.3548 20.144 20.3201 20.144C19.4775 20.144 18.7201 19.9573 18.0481 19.584C17.3868 19.2 16.8641 18.6667 16.4801 17.984C16.1068 17.2907 15.9201 16.4907 15.9201 15.584C15.9201 14.6773 16.1015 13.8827 16.4641 13.2C16.8375 12.5067 17.3548 11.9733 18.0161 11.6C18.6881 11.2267 19.4561 11.04 20.3201 11.04C21.1521 11.04 21.8935 11.2213 22.5441 11.584C23.1948 11.9467 23.7015 12.4587 24.0641 13.12C24.4268 13.7707 24.6081 14.5227 24.6081 15.376ZM22.7041 14.8C22.6935 14.128 22.4535 13.5893 21.9841 13.184C21.5148 12.7787 20.9335 12.576 20.2401 12.576C19.6108 12.576 19.0721 12.7787 18.6241 13.184C18.1761 13.5787 17.9095 14.1173 17.8241 14.8H22.7041ZM38.2431 11.184L35.5071 20H33.5871L31.8111 13.488L30.0351 20H28.1151L25.3631 11.184H27.2191L29.0591 18.272L30.9311 11.184H32.8351L34.6271 18.24L36.4511 11.184H38.2431ZM45.5865 12.48C45.8958 12.0747 46.3172 11.7333 46.8505 11.456C47.3838 11.1787 47.9865 11.04 48.6585 11.04C49.4265 11.04 50.1252 11.232 50.7545 11.616C51.3945 11.9893 51.8958 12.5173 52.2585 13.2C52.6212 13.8827 52.8025 14.6667 52.8025 15.552C52.8025 16.4373 52.6212 17.232 52.2585 17.936C51.8958 18.6293 51.3945 19.1733 50.7545 19.568C50.1252 19.952 49.4265 20.144 48.6585 20.144C47.9865 20.144 47.3892 20.0107 46.8665 19.744C46.3438 19.4667 45.9172 19.1253 45.5865 18.72V24.192H43.7625V11.184H45.5865V12.48ZM50.9465 15.552C50.9465 14.944 50.8185 14.4213 50.5625 13.984C50.3172 13.536 49.9865 13.2 49.5705 12.976C49.1652 12.7413 48.7278 12.624 48.2585 12.624C47.7998 12.624 47.3625 12.7413 46.9465 12.976C46.5412 13.2107 46.2105 13.552 45.9545 14C45.7092 14.448 45.5865 14.976 45.5865 15.584C45.5865 16.192 45.7092 16.7253 45.9545 17.184C46.2105 17.632 46.5412 17.9733 46.9465 18.208C47.3625 18.4427 47.7998 18.56 48.2585 18.56C48.7278 18.56 49.1652 18.4427 49.5705 18.208C49.9865 17.9627 50.3172 17.6107 50.5625 17.152C50.8185 16.6933 50.9465 16.16 50.9465 15.552ZM58.4303 20.144C57.5983 20.144 56.8463 19.9573 56.1743 19.584C55.5023 19.2 54.9743 18.6667 54.5903 17.984C54.2063 17.2907 54.0143 16.4907 54.0143 15.584C54.0143 14.688 54.2116 13.8933 54.6063 13.2C55.0009 12.5067 55.5396 11.9733 56.2223 11.6C56.9049 11.2267 57.6676 11.04 58.5103 11.04C59.3529 11.04 60.1156 11.2267 60.7983 11.6C61.4809 11.9733 62.0196 12.5067 62.4143 13.2C62.8089 13.8933 63.0063 14.688 63.0063 15.584C63.0063 16.48 62.8036 17.2747 62.3983 17.968C61.9929 18.6613 61.4383 19.2 60.7343 19.584C60.0409 19.9573 59.2729 20.144 58.4303 20.144ZM58.4303 18.56C58.8996 18.56 59.3369 18.448 59.7423 18.224C60.1583 18 60.4943 17.664 60.7503 17.216C61.0063 16.768 61.1343 16.224 61.1343 15.584C61.1343 14.944 61.0116 14.4053 60.7663 13.968C60.5209 13.52 60.1956 13.184 59.7903 12.96C59.3849 12.736 58.9476 12.624 58.4783 12.624C58.0089 12.624 57.5716 12.736 57.1663 12.96C56.7716 13.184 56.4569 13.52 56.2223 13.968C55.9876 14.4053 55.8703 14.944 55.8703 15.584C55.8703 16.5333 56.1103 17.2693 56.5903 17.792C57.0809 18.304 57.6943 18.56 58.4303 18.56ZM66.6334 12.464C66.9 12.016 67.252 11.6693 67.6894 11.424C68.1374 11.168 68.6654 11.04 69.2734 11.04V12.928H68.8094C68.0947 12.928 67.5507 13.1093 67.1774 13.472C66.8147 13.8347 66.6334 14.464 66.6334 15.36V20H64.8094V11.184H66.6334V12.464ZM73.078 12.672V17.552C73.078 17.8827 73.1527 18.1227 73.302 18.272C73.462 18.4107 73.7287 18.48 74.102 18.48H75.222V20H73.782C72.9607 20 72.3313 19.808 71.894 19.424C71.4567 19.04 71.238 18.416 71.238 17.552V12.672H70.198V11.184H71.238V8.992H73.078V11.184H75.222V12.672H73.078ZM80.5991 12.672H78.9671V20H77.1271V12.672H76.0871V11.184H77.1271V10.56C77.1271 9.54667 77.3938 8.81067 77.9271 8.352C78.4711 7.88267 79.3191 7.648 80.4711 7.648V9.168C79.9165 9.168 79.5271 9.27467 79.3031 9.488C79.0791 9.69067 78.9671 10.048 78.9671 10.56V11.184H80.5991V12.672ZM86.0396 20.144C85.2076 20.144 84.4556 19.9573 83.7836 19.584C83.1116 19.2 82.5836 18.6667 82.1996 17.984C81.8156 17.2907 81.6236 16.4907 81.6236 15.584C81.6236 14.688 81.821 13.8933 82.2156 13.2C82.6103 12.5067 83.149 11.9733 83.8316 11.6C84.5143 11.2267 85.277 11.04 86.1196 11.04C86.9623 11.04 87.725 11.2267 88.4076 11.6C89.0903 11.9733 89.629 12.5067 90.0236 13.2C90.4183 13.8933 90.6156 14.688 90.6156 15.584C90.6156 16.48 90.413 17.2747 90.0076 17.968C89.6023 18.6613 89.0476 19.2 88.3436 19.584C87.6503 19.9573 86.8823 20.144 86.0396 20.144ZM86.0396 18.56C86.509 18.56 86.9463 18.448 87.3516 18.224C87.7676 18 88.1036 17.664 88.3596 17.216C88.6156 16.768 88.7436 16.224 88.7436 15.584C88.7436 14.944 88.621 14.4053 88.3756 13.968C88.1303 13.52 87.805 13.184 87.3996 12.96C86.9943 12.736 86.557 12.624 86.0876 12.624C85.6183 12.624 85.181 12.736 84.7756 12.96C84.381 13.184 84.0663 13.52 83.8316 13.968C83.597 14.4053 83.4796 14.944 83.4796 15.584C83.4796 16.5333 83.7196 17.2693 84.1996 17.792C84.6903 18.304 85.3036 18.56 86.0396 18.56ZM94.2428 8.16V20H92.4188V8.16H94.2428ZM97.5655 10.016C97.2348 10.016 96.9575 9.904 96.7335 9.68C96.5095 9.456 96.3975 9.17867 96.3975 8.848C96.3975 8.51733 96.5095 8.24 96.7335 8.016C96.9575 7.792 97.2348 7.68 97.5655 7.68C97.8855 7.68 98.1575 7.792 98.3815 8.016C98.6055 8.24 98.7175 8.51733 98.7175 8.848C98.7175 9.17867 98.6055 9.456 98.3815 9.68C98.1575 9.904 97.8855 10.016 97.5655 10.016ZM98.4615 11.184V20H96.6375V11.184H98.4615ZM104.68 20.144C103.848 20.144 103.096 19.9573 102.424 19.584C101.752 19.2 101.224 18.6667 100.84 17.984C100.456 17.2907 100.264 16.4907 100.264 15.584C100.264 14.688 100.462 13.8933 100.856 13.2C101.251 12.5067 101.79 11.9733 102.472 11.6C103.155 11.2267 103.918 11.04 104.76 11.04C105.603 11.04 106.366 11.2267 107.048 11.6C107.731 11.9733 108.27 12.5067 108.664 13.2C109.059 13.8933 109.256 14.688 109.256 15.584C109.256 16.48 109.054 17.2747 108.648 17.968C108.243 18.6613 107.688 19.2 106.984 19.584C106.291 19.9573 105.523 20.144 104.68 20.144ZM104.68 18.56C105.15 18.56 105.587 18.448 105.992 18.224C106.408 18 106.744 17.664 107 17.216C107.256 16.768 107.384 16.224 107.384 15.584C107.384 14.944 107.262 14.4053 107.016 13.968C106.771 13.52 106.446 13.184 106.04 12.96C105.635 12.736 105.198 12.624 104.728 12.624C104.259 12.624 103.822 12.736 103.416 12.96C103.022 13.184 102.707 13.52 102.472 13.968C102.238 14.4053 102.12 14.944 102.12 15.584C102.12 16.5333 102.36 17.2693 102.84 17.792C103.331 18.304 103.944 18.56 104.68 18.56Z" fill="#FCD980"/>
<path d="M150.53 14.5303C150.823 14.2374 150.823 13.7626 150.53 13.4697L145.757 8.6967C145.464 8.40381 144.99 8.40381 144.697 8.6967C144.404 8.98959 144.404 9.46447 144.697 9.75736L148.939 14L144.697 18.2426C144.404 18.5355 144.404 19.0104 144.697 19.3033C144.99 19.5962 145.464 19.5962 145.757 19.3033L150.53 14.5303ZM126 14.75H150V13.25H126V14.75Z" fill="#FCD980"/>
</svg>
