<svg width="124" height="28" viewBox="0 0 124 28" fill="none" xmlns="http://www.w3.org/2000/svg">
<path d="M10.784 8.88L6.608 20H4.496L0.304 8.88H2.256L5.552 18.128L8.864 8.88H10.784ZM13.2374 10.016C12.9067 10.016 12.6294 9.904 12.4054 9.68C12.1814 9.456 12.0694 9.17867 12.0694 8.848C12.0694 8.51733 12.1814 8.24 12.4054 8.016C12.6294 7.792 12.9067 7.68 13.2374 7.68C13.5574 7.68 13.8294 7.792 14.0534 8.016C14.2774 8.24 14.3894 8.51733 14.3894 8.848C14.3894 9.17867 14.2774 9.456 14.0534 9.68C13.8294 9.904 13.5574 10.016 13.2374 10.016ZM14.1334 11.184V20H12.3094V11.184H14.1334ZM24.6081 15.376C24.6081 15.7067 24.5868 16.0053 24.5441 16.272H17.8081C17.8615 16.976 18.1228 17.5413 18.5921 17.968C19.0615 18.3947 19.6375 18.608 20.3201 18.608C21.3015 18.608 21.9948 18.1973 22.4001 17.376H24.3681C24.1015 18.1867 23.6161 18.8533 22.9121 19.376C22.2188 19.888 21.3548 20.144 20.3201 20.144C19.4775 20.144 18.7201 19.9573 18.0481 19.584C17.3868 19.2 16.8641 18.6667 16.4801 17.984C16.1068 17.2907 15.9201 16.4907 15.9201 15.584C15.9201 14.6773 16.1015 13.8827 16.4641 13.2C16.8375 12.5067 17.3548 11.9733 18.0161 11.6C18.6881 11.2267 19.4561 11.04 20.3201 11.04C21.1521 11.04 21.8935 11.2213 22.5441 11.584C23.1948 11.9467 23.7015 12.4587 24.0641 13.12C24.4268 13.7707 24.6081 14.5227 24.6081 15.376ZM22.7041 14.8C22.6935 14.128 22.4535 13.5893 21.9841 13.184C21.5148 12.7787 20.9335 12.576 20.2401 12.576C19.6108 12.576 19.0721 12.7787 18.6241 13.184C18.1761 13.5787 17.9095 14.1173 17.8241 14.8H22.7041ZM38.2431 11.184L35.5071 20H33.5871L31.8111 13.488L30.0351 20H28.1151L25.3631 11.184H27.2191L29.0591 18.272L30.9311 11.184H32.8351L34.6271 18.24L36.4511 11.184H38.2431ZM55.4745 8.88V20H53.6505V12.384L50.2585 20H48.9945L45.5865 12.384V20H43.7625V8.88H45.7305L49.6345 17.6L53.5225 8.88H55.4745ZM61.6959 20.144C60.8639 20.144 60.1119 19.9573 59.4399 19.584C58.7679 19.2 58.2399 18.6667 57.8559 17.984C57.4719 17.2907 57.2799 16.4907 57.2799 15.584C57.2799 14.688 57.4772 13.8933 57.8719 13.2C58.2665 12.5067 58.8052 11.9733 59.4879 11.6C60.1705 11.2267 60.9332 11.04 61.7759 11.04C62.6185 11.04 63.3812 11.2267 64.0639 11.6C64.7465 11.9733 65.2852 12.5067 65.6799 13.2C66.0745 13.8933 66.2719 14.688 66.2719 15.584C66.2719 16.48 66.0692 17.2747 65.6639 17.968C65.2585 18.6613 64.7039 19.2 63.9999 19.584C63.3065 19.9573 62.5385 20.144 61.6959 20.144ZM61.6959 18.56C62.1652 18.56 62.6025 18.448 63.0079 18.224C63.4239 18 63.7599 17.664 64.0159 17.216C64.2719 16.768 64.3999 16.224 64.3999 15.584C64.3999 14.944 64.2772 14.4053 64.0319 13.968C63.7865 13.52 63.4612 13.184 63.0559 12.96C62.6505 12.736 62.2132 12.624 61.7439 12.624C61.2745 12.624 60.8372 12.736 60.4319 12.96C60.0372 13.184 59.7225 13.52 59.4879 13.968C59.2532 14.4053 59.1359 14.944 59.1359 15.584C59.1359 16.5333 59.3759 17.2693 59.8559 17.792C60.3465 18.304 60.9599 18.56 61.6959 18.56ZM69.899 12.464C70.1657 12.016 70.5177 11.6693 70.955 11.424C71.403 11.168 71.931 11.04 72.539 11.04V12.928H72.075C71.3603 12.928 70.8163 13.1093 70.443 13.472C70.0803 13.8347 69.899 14.464 69.899 15.36V20H68.075V11.184H69.899V12.464ZM82.2956 15.376C82.2956 15.7067 82.2743 16.0053 82.2316 16.272H75.4956C75.549 16.976 75.8103 17.5413 76.2796 17.968C76.749 18.3947 77.325 18.608 78.0076 18.608C78.989 18.608 79.6823 18.1973 80.0876 17.376H82.0556C81.789 18.1867 81.3036 18.8533 80.5996 19.376C79.9063 19.888 79.0423 20.144 78.0076 20.144C77.165 20.144 76.4076 19.9573 75.7356 19.584C75.0743 19.2 74.5516 18.6667 74.1676 17.984C73.7943 17.2907 73.6076 16.4907 73.6076 15.584C73.6076 14.6773 73.789 13.8827 74.1516 13.2C74.525 12.5067 75.0423 11.9733 75.7036 11.6C76.3756 11.2267 77.1436 11.04 78.0076 11.04C78.8396 11.04 79.581 11.2213 80.2316 11.584C80.8823 11.9467 81.389 12.4587 81.7516 13.12C82.1143 13.7707 82.2956 14.5227 82.2956 15.376ZM80.3916 14.8C80.381 14.128 80.141 13.5893 79.6716 13.184C79.2023 12.7787 78.621 12.576 77.9276 12.576C77.2983 12.576 76.7596 12.7787 76.3116 13.184C75.8636 13.5787 75.597 14.1173 75.5116 14.8H80.3916Z" fill="#282938"/>
<path d="M123.53 14.5303C123.823 14.2374 123.823 13.7626 123.53 13.4697L118.757 8.6967C118.464 8.40381 117.99 8.40381 117.697 8.6967C117.404 8.98959 117.404 9.46447 117.697 9.75736L121.939 14L117.697 18.2426C117.404 18.5355 117.404 19.0104 117.697 19.3033C117.99 19.5962 118.464 19.5962 118.757 19.3033L123.53 14.5303ZM99 14.75H123V13.25H99V14.75Z" fill="#282938"/>
</svg>
